<svg xmlns="http://www.w3.org/2000/svg" viewBox="0 0 436.2 247.7"><defs><style>.cls-2{fill:#fff}.cls-4{fill:#fcc190}.cls-5{fill:#329199}.cls-6{fill:#333;opacity:.15}.cls-7{fill:#64d7c0}.cls-9{fill:#4460aa}.cls-10{fill:#18337e}.cls-11{fill:#95a8dc}.cls-12{fill:#f5b29c}.cls-13{fill:#fca353}.cls-14{fill:#2a2b7c}.cls-15{fill:#0b1238}.cls-16{fill:#ecb49f}.cls-17{fill:#e8852c}.cls-20{fill:#5c75c3}.cls-23{fill:#2e3054}.cls-26{fill:#ad704d}.cls-27{fill:#3d4166}</style></defs><path fill="#f9d6b9" d="M436.2 41.2c-3 0-62.5.4-97 3.4-35.4 3.1-73.3 12-96.4 23-7 3.4-15.9 8.5-15.4 17.4.3 7.4 7.7 7 9.7 12.3-9.2.3-20.4 4.7-29 7.7-12.2 4.4-23.1 9.2-33.2 17.7a45.7 45.7 0 0 0-15.3 45.9 37.5 37.5 0 0 0 5.8 15c2.5 3.6 7.8 7.6 9.3 11.5 2.8 7-6.5 10.3-11 14-7.1 6-16.5 12.8-14 23.3 2 8.5 10.5 13.1 18.5 15l1.1.2h267Z"/><path d="M235.6 230c0 1.6-14.8 3-33.2 3s-33.2-1.3-33.2-3 14.9-3 33.2-3 33.2 1.4 33.2 3ZM405.1 227.5c0 1.7-14.8 3-33.2 3s-33.2-1.3-33.2-3 14.9-3 33.2-3 33.2 1.4 33.2 3ZM272.4 186c0 1.4-8.5 2.5-19.1 2.5s-19.1-1.1-19.1-2.6 8.6-2.6 19.1-2.6 19.1 1.2 19.1 2.6ZM304.2 199.1c0 1.4-8.6 2.6-19.2 2.6s-19-1.1-19-2.6 8.5-2.6 19-2.6 19.2 1.2 19.2 2.6ZM386.5 180.8c0 2.2-20.1 4-45 4s-45-1.8-45-4 20.2-4 45-4 45 1.8 45 4Z" class="cls-4"/><path d="m320 49.9-9.4 3.8-1.8.7a9.5 9.5 0 0 1-1.7.5 4.7 4.7 0 0 1-2 0 4.8 4.8 0 0 1-1.6-.8 10.2 10.2 0 0 1-1.4-1.2l-1.3-1.4-7-7.5a8.6 8.6 0 0 1-1.3-1.8l-2.9 13a2.7 2.7 0 0 0 2 3.3l24.3 5.4a2.6 2.6 0 0 0 2-.3 2.6 2.6 0 0 0 1.2-1.7l2.9-13.1a9.3 9.3 0 0 1-2 1Z" class="cls-5"/><path d="m293.5 45.7 6.9 7.5 1.3 1.4a10.2 10.2 0 0 0 1.4 1.2 5 5 0 0 0 1.7.8 4.7 4.7 0 0 0 1.9 0 9.6 9.6 0 0 0 1.7-.5l1.8-.7q3.2-1.4 9.5-3.8a9.2 9.2 0 0 0 1.8-1 4.2 4.2 0 0 0 .3-.8 2.7 2.7 0 0 0-2-3.3l-24.3-5.4a2.4 2.4 0 0 0-2.1.4 3.4 3.4 0 0 0-1.2 2 2.6 2.6 0 0 0 0 .4 9.2 9.2 0 0 0 1.3 1.8Z" class="cls-6"/><path d="m293.8 44 7 7.5c.5.6 1 1 1.2 1.4a8.9 8.9 0 0 0 1.4 1.2 5 5 0 0 0 1.7.8 5.1 5.1 0 0 0 2 0 9.5 9.5 0 0 0 1.7-.5l1.7-.7 9.5-3.9a9.2 9.2 0 0 0 1.9-1 4.4 4.4 0 0 0 .2-.7 2.6 2.6 0 0 0-.3-2 2.6 2.6 0 0 0-1.7-1.2l-24.2-5.4a2.4 2.4 0 0 0-2.2.4 3.4 3.4 0 0 0-1.1 2 2.6 2.6 0 0 0-.1.4 9.1 9.1 0 0 0 1.3 1.7Z" class="cls-7"/><path fill="#f1f2f2" d="M363.2 178.7h-44.8l7.8-15.5h31.1l5.9 15.5z"/><path d="M317 177.6h48.2a2.2 2.2 0 0 1 2.2 2.2v1.5h-52.6v-1.5a2.2 2.2 0 0 1 2.2-2.2ZM406.9 73.8v88.5a4.1 4.1 0 0 1-4.2 4h-121a4.1 4.1 0 0 1-4-4V73.8a4.2 4.2 0 0 1 4-4.1h121a4.1 4.1 0 0 1 4.2 4.1Z" class="cls-2"/><path d="M406.9 73.8v74H277.6v-74a4.2 4.2 0 0 1 4.1-4.1h121a4.1 4.1 0 0 1 4.2 4.1Z" class="cls-9"/><circle cx="341.3" cy="156.9" r="2.9" class="cls-9"/><path d="M309.1 49.4h66.3v118.7h-66.3z" class="cls-10" transform="rotate(90 342.2 108.8)"/><path d="M293.6 81.1h32v1.8h-32zM293.6 84.6h19.5v1.7h-19.5zM321 84.6h61.4v1.7H321zM303.8 88.1h26.8v1.8h-26.8zM312.4 91.6h32v1.8h-32zM346.4 91.6h26.8v2h-26.8zM312.3 95.1H337v1.7h-24.7zM339.4 95.1h50.9V97h-50.9zM293.6 99.8h32v1.8h-32zM293.6 103.3h19.5v1.7h-19.5zM321 103.3h61.4v1.7H321zM303.8 106.8h26.8v1.8h-26.8zM312.4 110.3h32v1.8h-32zM346.4 110.3h26.8v2h-26.8zM312.3 113.8H337v1.7h-24.7zM339.4 113.8h50.9v1.9h-50.9zM293.6 118.5h32v1.8h-32zM293.6 122h19.5v1.7h-19.5zM321 122h61.4v1.7H321zM303.8 125.5h26.8v1.8h-26.8zM312.4 129h32v1.8h-32zM346.4 129h26.8v2h-26.8zM312.3 132.5H337v1.7h-24.7zM339.4 132.5h50.9v1.9h-50.9z" class="cls-11"/><path d="M262 125.6c.3-1.7 4.5-5.8.8-6.4-1.7-.3-1 1.8-1.4 3s-1.3 2.3 0 3.3Z" class="cls-12"/><path d="M262.7 123.8s-3.4 8-5 9.5-4.7 3.2-7.1 4.9c-.2-1.7-1-2.4-2-3.6 2.2-1.7 4.8-3.5 6.5-4.6s2.7-2.7 3.7-3.8a15.6 15.6 0 0 0 2.2-3.6 14 14 0 0 1 1.7 1.2Z" class="cls-13"/><path d="M252.3 183s-4 2.5-3 4c1 1.2 3.6-1.5 3-4Z" class="cls-14"/><path d="M252.5 130.4s.6 2.6-.4 4.2c0 0 3.5.2 4.6-.8l-1-2.4s1.4.5 1.9-.2.4-4.2-.5-6-4-3-5.2 0a5.3 5.3 0 0 0 .6 5.2Z" class="cls-12"/><path d="M258.8 134.4a2.4 2.4 0 0 0-1.6-1.4 12.8 12.8 0 0 0-4.1-.4 9.9 9.9 0 0 0-4.5 2 7.8 7.8 0 0 0-1.3 5.8c.8 3.3 1.5 5.1 1.3 6.2s-.3 4.4-.8 5.6c0 0 11.5 1.1 9.8-2.2s.6-4.5 1.6-8.4a10.6 10.6 0 0 0-.3-6.9 3.6 3.6 0 0 0-.1-.3Z" class="cls-13"/><path d="m292.1 103.3-8.6 8.6-1.6 1.7a11.8 11.8 0 0 1-1.7 1.3 6 6 0 0 1-2 .8 5.7 5.7 0 0 1-2.3 0 11.8 11.8 0 0 1-2-.7l-2-1-11.2-5a10.6 10.6 0 0 1-2.3-1.3l2.9 15.7a3 3 0 0 0 1.3 2 3.1 3.1 0 0 0 2.4.6l29.1-5.3a3 3 0 0 0 2-1.4 3.1 3.1 0 0 0 .6-2.4l-2.9-15.7a11.1 11.1 0 0 1-1.6 2.1Z" class="cls-5"/><path d="m261 111 11 5 2.1 1a11 11 0 0 0 2 .7 5.9 5.9 0 0 0 2.3 0 5.9 5.9 0 0 0 2.1-.8 12 12 0 0 0 1.7-1.3l1.6-1.6 8.6-8.6a10.8 10.8 0 0 0 1.6-2 4.5 4.5 0 0 0 0-1 3.2 3.2 0 0 0-3.8-2.6L261 105a2.9 2.9 0 0 0-2.1 1.4 4 4 0 0 0-.4 2.8 3.8 3.8 0 0 0 .2.4 10.6 10.6 0 0 0 2.3 1.4Z" class="cls-6"/><path d="m260.7 109.1 11 5 2.1 1a11.5 11.5 0 0 0 2 .6 5.9 5.9 0 0 0 2.3.1 5.8 5.8 0 0 0 2-.9 12.2 12.2 0 0 0 1.8-1.3l1.6-1.6 8.6-8.6a11.2 11.2 0 0 0 1.6-2 5.4 5.4 0 0 0-.1-1 3.2 3.2 0 0 0-3.8-2.6l-29 5.3a2.9 2.9 0 0 0-2.2 1.5 4 4 0 0 0-.4 2.7 2.5 2.5 0 0 0 .1.4 10.6 10.6 0 0 0 2.4 1.4Z" class="cls-7"/><path d="M271.4 127.6c.6-1.7 5.4-5 1.7-6.3-1.6-.5-1.3 1.7-1.8 2.8s-1.6 2-.3 3.3Z" class="cls-12"/><path d="M272.4 125.9s-4.5 7.4-6.4 8.6-5 2.5-7.7 3.9c0-1.7-.7-2.5-1.5-3.8l7.2-3.7c1.9-.9 3-2.2 4.2-3.2a15.7 15.7 0 0 0 2.7-3.2 14.3 14.3 0 0 1 1.5 1.4Z" class="cls-13"/><path d="M248 150.1a21 21 0 0 0 .1 10.4c1 3.7-.7 5.9-.8 8.3s1.4 8 1.6 11-.9 7.2 0 7.3 1.2.5 1.7-.2a19.4 19.4 0 0 0 0-3.2 95.7 95.7 0 0 1 .9-10.8 54.1 54.1 0 0 0 .7-10.9 45 45 0 0 1 .5-6.5s-2.5-6-4.7-5.4Z" class="cls-12"/><path d="M248.7 185.6s.5 1 2-.1c0 0 .2 2-1.1 1.9s-1.4-1-.9-1.8ZM259.8 184s-4.6 1.5-3.9 3c.7 1.5 3.8-.5 3.9-3Z" class="cls-14"/><path d="M254.1 150.3a21 21 0 0 0 .4 10.4c1 3.7-.6 6-.6 8.4s1.6 8 1.9 10.9-.8 7.1.1 7.2 1.2.5 1.7-.2a18.9 18.9 0 0 0 0-3.1 96.5 96.5 0 0 1 .5-11 54.6 54.6 0 0 0 .5-10.8 43.8 43.8 0 0 1 .3-6.5s-2.6-5.9-4.8-5.3Z" class="cls-12"/><path d="M255.7 185.8s.5 1 2-.1c0 0 .2 2-1 1.9s-1.5-1-1-1.8Z" class="cls-14"/><path d="m255.2 122.3.7.2c.4.2.2.2.7.1s.6-.3 1-.2c2 .4.3 2.8-.5 3.5s-1.1.5-1.2 1.7a5.5 5.5 0 0 0 .8 2.8c1 1.7 2 3.3 1 5.3-.4 1-1.5 2.3-2.7 1.5 1.6 2.3-1.4 3.6-3.3 3.7s-3.9-1.7-2.8-3.6c-1.8.4-2-1.7-1.7-2.9s1-2.4 1.6-3.6 0-2.4 0-3.7a4.6 4.6 0 0 1 3.2-4.5 4.4 4.4 0 0 1 3.2-.3Z" class="cls-15"/><path d="M259.2 160.8c-.7 3.2-.4 6.4-.6 9.6-3.5 1.3-7.7 0-11.2 0 .3-5.9-1.4-11.9-1-18 0-1.5 2.2-4.7 2.2-4.7a22 22 0 0 0 3.8.7 29.1 29.1 0 0 0 4.8-.3 42.3 42.3 0 0 1 2.6 6.3 15.4 15.4 0 0 1-.6 6.4Z" class="cls-10"/><path d="m357 97.2-8.7 3.8-1.6.7a8.8 8.8 0 0 1-1.6.5 4.7 4.7 0 0 1-1.8 0 4.5 4.5 0 0 1-1.6-.8 9 9 0 0 1-1.3-1l-1.2-1.2q-1.8-2-6.7-6.9a8.4 8.4 0 0 1-1.3-1.6l-2.4 12.2a2.5 2.5 0 0 0 2 3l22.7 4.4a2.5 2.5 0 0 0 3-2l2.3-12.2a8.8 8.8 0 0 1-1.8 1Z" class="cls-5"/><path d="M332.2 94q4.8 4.8 6.6 6.8l1.2 1.2a9 9 0 0 0 1.3 1 4.5 4.5 0 0 0 1.6.7 4.7 4.7 0 0 0 1.8 0 8.8 8.8 0 0 0 1.6-.4l1.6-.7 8.7-3.8a8.8 8.8 0 0 0 1.7-1 3.8 3.8 0 0 0 .3-.8 2.4 2.4 0 0 0-.4-1.9 2.4 2.4 0 0 0-1.6-1L334 89.6a2.3 2.3 0 0 0-2 .5 3.1 3.1 0 0 0-1 1.9 1.5 1.5 0 0 0 0 .3 8.3 8.3 0 0 0 1.2 1.6Z" class="cls-6"/><path d="m332.5 92.4 6.6 6.8 1.2 1.3a8.6 8.6 0 0 0 1.3 1 4.4 4.4 0 0 0 1.6.7 4.4 4.4 0 0 0 1.8 0 8.6 8.6 0 0 0 1.6-.5l1.6-.7 8.7-3.8a8.7 8.7 0 0 0 1.7-1 4.7 4.7 0 0 0 .3-.7 2.5 2.5 0 0 0-2-3L334.3 88a2.2 2.2 0 0 0-2 .4 3.2 3.2 0 0 0-1 2v.3a8.3 8.3 0 0 0 1.2 1.6Z" class="cls-7"/><path d="M352.3 48.1c-1.2-.3-4-2.5-4.2-2.3s.8 1 .6 1.1-2.6-1.3-3-1 1.5 2.2 2.6 2.8c.9.5 5 .4 4.8 1.8Z" class="cls-16"/><path d="m351.2 47.4-1.2 1.9 7 3.9s2.8.2 4.8.2a9.6 9.6 0 0 0 2.1-.2c1.6-.5 2.7-2.4 1.2-3.7s-3 .4-4.4.5a22 22 0 0 1-3.5 0Z" class="cls-17"/><path d="M370.3 63.5c-4.6-2.9-16.7 4-17.7 4.9a60 60 0 0 0 2.2 16.9s-1.7 1.8-1.4 2.7c0 0 4.5-2.9 3.7-4.1-.2-.1-.1-.4.8-.7-1-6.8.8-10.3-1.3-12.4 0 0 11.7-.3 13.2-.9s5.1-3.5.5-6.4Z" class="cls-15"/><path d="M371.4 64.4S354.2 57 353 57.1A80 80 0 0 0 342.2 68a21.1 21.1 0 0 0-3.7 1.8h5.3l.5-1.3s1.1.7 1.4.5c.8-.8 7.3-5.6 7.3-7l13.5 6.5s5-.1 4.9-4Z" class="cls-15"/><path d="M368.1 45.7c0 1-.3 3.2.3 4.1s3.8 2 2.6 3.4a6 6 0 0 1-3 1.3 9.3 9.3 0 0 1-5.3-.3 1.8 1.8 0 0 1-1.2-2.1c.1-.6.6-.9 1-1.3s.4-1.4 1-1.7c.5-.2 1.2 0 1.6-.2s.5-1.2.5-1.6c0-1.4 1.8-2.4 2.5-1.6Z" class="cls-16"/><path fill="#ecb49f" d="M368 47.3a8.3 8.3 0 0 1 0-1.2c-.8-.4-2.2.5-2.5 1.7v.3a2.2 2.2 0 0 0 0 .3l-.4.5a1.3 1.3 0 0 0 1 .8c.8 0 1.6-1.7 2-2.4Z" style="mix-blend-mode:multiply"/><path d="M365.2 43s-2 3.6-.2 4.9 3.4-.4 4.4-1.7c1.1-1.5 1.3-2-1-3.6a2.2 2.2 0 0 0-3.2.4Z" class="cls-16"/><path d="M364.3 42.7c.3-1.2 1.5-1.6 2.8-1.6a2.5 2.5 0 0 1 1.6.4 3.7 3.7 0 0 1 1 1.8Z" class="cls-15"/><path d="M370 41.5c-2.6-2.4-4.8.4-4.8.4a1.1 1.1 0 0 0-.1.3c-.3 1 1 1.7 1.9 1.5-.4 0 .4.8.5.9.4.3 1 .1 1.4.3h.2c.3.5-.4 1.4-.4 2a2.1 2.1 0 0 0 1.7-1.6 3 3 0 0 0-.5-3.8Z" class="cls-15"/><path d="M358.6 45.9c-1.1-.6-3.4-3.5-3.7-3.3s.6 1 .4 1.2-2.3-2-2.8-1.9 1 2.7 2 3.6c.7.7 5 1.7 4.3 3Z" class="cls-16"/><path d="M372.3 63.2s1.9 6.8-4.1 7l-3.5-7.5Z" class="cls-15"/><path d="M366.1 65.6c-2.6-1.4-2-2.5-2.5-5.1s-1.2-3.7-2-7.2 2-4.2 2-4.2-.6 1.1 1.3 1.5a4.8 4.8 0 0 0 3.6-.8s1.4.8 1.8 1c1.6 1.2 2 3.5 2.3 5.3.4 3.4.5 8.8 0 9.7s-3.9 1.2-6.5-.2Z" class="cls-13"/><path d="M366.8 47a2.5 2.5 0 0 1-2.2-1s-.2 1 .5 1.3 1.7-.3 1.7-.3Z" class="cls-2"/><path d="m358.4 45.3-1.8 1.5 5.5 6.1s2.6 1.2 4.6 1.9a10.4 10.4 0 0 0 2.2.5c1.7 0 3.3-1.5 2.4-3.2s-3-.6-4.6-1a23.5 23.5 0 0 1-3.4-1.2Z" class="cls-17"/><path d="M381.4 127.3c-2.1-.4-5.1 1.9-6 3.8a17.4 17.4 0 0 1-2.5 3.7l1.3 1s-.1 4.6 2.8 5.3c1.9.4 5-1 6.6-2.9 2.2-2.6 1.7-3.8 1.5-5.8-.1-1.9-1.6-4.4-3.3-5a2 2 0 0 0-.4-.1Z" class="cls-12"/><path d="M382.6 134.9c-.5 2.6-3 4.7-4.9 6.6a6.4 6.4 0 0 1-1.7 4.9c-.5.6 4.8-1 5.3-1.1 1.3-.4 3.4-.4 4.4-1.4s1.3-.8.5-1.7c-1.2-1.4-2.5-4-3.2-8.1Z" class="cls-12"/><path fill="#b9b3c0" d="M381.7 138.5a6.7 6.7 0 0 1-3.4 2.5 6 6 0 0 1-.5 2.4 16.3 16.3 0 0 0 3.9-4.9Z" style="mix-blend-mode:multiply"/><path d="m401.7 223.7.5 2.2-7.6 1.5s-.6-1.4 2.3-2.4 2.4-1.8 2.4-1.8l-.6-3.2 2.7-1.1Z" class="cls-20"/><path d="M378.8 181.2s6 15.4 9.3 20.3c3.9 5.8 10 18.6 10.1 21.9l3.6-.9s.2-10.8-2.7-15.5-3.7-9.3-5.2-14.4-2.9-17.5-2.9-17.5-15.4-5.4-12.2 6.1Z" class="cls-10"/><path d="m365.9 224.1-.2 2.2-7.5-1.6s-.1-1.5 2.9-1.3 2.7-.7 2.7-.7l.4-3h2.9Z" class="cls-20"/><path fill="#2b4a9c" d="m376.7 171.1-7.6 26.5-6.6 24.4s3 1 4.7.5a207.3 207.3 0 0 0 8-21 116 116 0 0 0 8.6-13.3c2.6-4.4 8.7-7.3 7.9-17.4s-14.1-5.6-15 .3Z"/><path fill="#cdd8e4" d="M381 164.4c.9-3.7-4.7-7-8-7.8a34 34 0 0 0 .6 7.2c3.7 1.5 7 2.3 7.4.6Z" style="mix-blend-mode:multiply"/><path d="M376.3 146a22 22 0 0 0-3 8.4 25.8 25.8 0 0 0 .7 8.4c.6 2.7.4 5.7.5 8.4.1 1.8.5 3.6.5 5.4a11.3 11.3 0 0 1 4.6-.8c2.8-.1 5.6-.4 8.5-.4 1 0 3.4.7 3.6-.5v-2.7c0-.9.3-1.5.3-2.3.2-1 .5-2.2 0-3.2a7.5 7.5 0 0 1-1.1-2.8c-.5-3.2 0-6.7.4-10 .6-5.5-1-8.2-3.2-10.5s-4.8-1.1-6.7.4-2.6 1.6-5.1 2.2Z" class="cls-13"/><path d="m399.7 158.7-10.4 6-2 1.2a10.6 10.6 0 0 1-2 .8 5.6 5.6 0 0 1-2.2.3 5.8 5.8 0 0 1-2.2-.7 11 11 0 0 1-1.7-1.1l-1.8-1.5q-2.5-2.2-9.3-7.6a10.8 10.8 0 0 1-1.8-2l-1.4 15.8a3.2 3.2 0 0 0 3 3.5l29.2 2.4a3.2 3.2 0 0 0 3.4-2.9l1.4-15.7a10.6 10.6 0 0 1-2.2 1.5Z" class="cls-5"/><path d="m368 158 9.3 7.8 1.7 1.4a11.3 11.3 0 0 0 1.8 1.2 5.7 5.7 0 0 0 2.1.6 5.7 5.7 0 0 0 2.3-.3 11 11 0 0 0 2-.8 51 51 0 0 0 2-1.1q3.5-2.2 10.4-6a11.4 11.4 0 0 0 2-1.5 5.1 5.1 0 0 0 .2-1 3.2 3.2 0 0 0-3-3.4l-29.2-2.5a2.8 2.8 0 0 0-2.4.9 4 4 0 0 0-1 2.5 3.5 3.5 0 0 0 0 .4 10.3 10.3 0 0 0 1.8 1.9Z" class="cls-6"/><path d="M368.1 156.1q6.8 5.5 9.3 7.7l1.7 1.4a11.3 11.3 0 0 0 1.8 1.2 5.7 5.7 0 0 0 2.2.6 5.7 5.7 0 0 0 2.2-.3 11.8 11.8 0 0 0 2-.8l2-1.1q3.5-2.2 10.4-6a10.5 10.5 0 0 0 2-1.5 5.1 5.1 0 0 0 .2-1 3.2 3.2 0 0 0-2.9-3.4l-29.2-2.4a2.8 2.8 0 0 0-2.5.8 4 4 0 0 0-1 2.5 3.5 3.5 0 0 0 0 .5 10.7 10.7 0 0 0 1.8 1.8Z" class="cls-7"/><path d="M398.7 167.3q-7.5 2.3-11.5 3.7l-2.1.7a11.1 11.1 0 0 1-2 .4 5.8 5.8 0 0 1-2.3-.2 5.7 5.7 0 0 1-2-1 10.4 10.4 0 0 1-1.5-1.5l-1.4-1.8q-2-2.7-7.6-9.4a10.9 10.9 0 0 1-1.4-2.3l-4.5 15.2a3.2 3.2 0 0 0 2.1 4l28.1 8.4a3 3 0 0 0 2.4-.3 3 3 0 0 0 1.6-1.8l4.5-15.2a10.8 10.8 0 0 1-2.4 1.1Z" class="cls-5"/><path d="m367.8 160.1 7.5 9.4 1.4 1.8a10.4 10.4 0 0 0 1.5 1.5 5.8 5.8 0 0 0 2 1 5.8 5.8 0 0 0 2.2.2 11.4 11.4 0 0 0 2.1-.3l2.2-.8 11.4-3.7a11.6 11.6 0 0 0 2.3-1 5 5 0 0 0 .4-.9 3.2 3.2 0 0 0-2.2-4l-28-8.4a2.8 2.8 0 0 0-2.6.3 4 4 0 0 0-1.5 2.3 3.4 3.4 0 0 0-.1.4 10.7 10.7 0 0 0 1.4 2.2Z" class="cls-6"/><path d="m368.3 158.2 7.6 9.4 1.3 1.8a11 11 0 0 0 1.6 1.5 5.7 5.7 0 0 0 2 1 5.8 5.8 0 0 0 2.2.2 11 11 0 0 0 2.1-.4l2.1-.7 11.5-3.7a11.3 11.3 0 0 0 2.3-1 4.3 4.3 0 0 0 .4-.9 3 3 0 0 0-.3-2.4 3 3 0 0 0-1.9-1.6l-28-8.4a2.8 2.8 0 0 0-2.6.3 4 4 0 0 0-1.6 2.2 3.4 3.4 0 0 0 0 .5 10.7 10.7 0 0 0 1.3 2.2Z" class="cls-7"/><path d="M391.1 147.9c-1.6-2.6-3.6-5.3-6.3-2.4s1 8.4 2.4 12.8.9 5.4 0 8.2-3.4 9-4.6 10.1-5.8 3.6-3.4 5.2a4.5 4.5 0 0 0 3.3.7 25.8 25.8 0 0 1 2-3.6c1.6-2.3 3.5-4.2 5.1-6.5a34 34 0 0 0 5.1-8.3s-1-12-3.6-16.2Z" class="cls-12"/><path d="M391.1 147.9c-1.6-2.6-3.6-5.3-6.3-2.4s1 8.4 2.4 12.8.9 5.4 0 8.2a33.2 33.2 0 0 1-2.5 5.4c-.3.7-2.3 3.7-2.3 4.4 0 1.1 2.9 1.6 3.6 2.2 1-.6 2.2-2.6 2.9-3.5.9-1.1 1.5-2.4 2.3-3.5a28 28 0 0 0 3.6-7.4s-1.1-12-3.7-16.2Z" class="cls-17"/><path d="M379.6 131.8c-.8-.4-1.6 0-2.4 0a4.6 4.6 0 0 1-2.7-1c-.5-.4-1.1-1.4-.7-2a1.2 1.2 0 0 1 1.7 0c-.8-1.7.8-2.8 2.3-3a13.7 13.7 0 0 1 2.5.2c1.6.2 3.2 1.6 4.4 2.7a5 5 0 0 1 1.4 3.3c.1 1.5 0 4-1.4 5-.5.3-4.6 0-4.3-.7s1.4-1.3 1.2-2.2a1 1 0 0 0-1.6-.5c-.4-.3-.3-1.2-.5-1.7Z" class="cls-15"/><path d="M294.7 140.6a2.2 2.2 0 0 1-.3-.6c-.6-1.2.9-2.7 1.5-3.5a12.8 12.8 0 0 0 1.9-3.1c.2-.5.5-2 1-2.2.3.3-.3 2 .6 1 .7-1 1.9-2.5 2.2-2.4s-.9 1.4-.7 1.7 1.7-1.5 1.9-1.3-1.4 1.6-1.2 1.9c.3.3 1.1-1 1.4-.8s-.8 1-1 1.6c.5.2 1.2-1 1.3-.4s-1.8 1.3-2.4 1.8a9 9 0 0 0-2.3 3.4c-.4 1-2.5 4.5-3.9 2.9Z" class="cls-16"/><path d="M268.7 162a8.7 8.7 0 0 1-1.5 3.5c0-.6.2-.5-.3-1.3s-2.9 3-3.5 3 1.9-4.9 3.3-5.8Z" class="cls-12"/><path d="M274.5 143.3c-2.1-.6-4.8 8.8-5.2 10.2-.9 3-2.7 5.9-3.3 8.7a20.2 20.2 0 0 1 2.7.6c1.5-3.4 2.6-4.7 3.4-7.2a40.6 40.6 0 0 1 2.5-5.6Z" class="cls-13"/><path d="M278 137.9c1.4 1.6 0 5.4-.7 7.2a7.8 7.8 0 0 1 3.5 0c.1-2.2 0-5.4.5-7Z" class="cls-12"/><path d="M289 199.3c1-.1 5.8-1.4 4-2.5-1.2-.7-3.7-.2-4.8.5Z" class="cls-23"/><path d="M287.5 191.7a2 2 0 0 0-1.2.6c-1.6 1.3 0 4.1.7 5.5s4.4 1.8 4.3-.6c0-.4-2 0-2.2 0 .6 0 .5-5.6-1.6-5.5ZM276 200.1c1.5-.4 4.4-.6 5.1-2.1a4.3 4.3 0 0 0-3 0 32.6 32.6 0 0 0-.5-3.4l-.2-4c0-2.8-4.7 1.2-1.4 9.5Z" class="cls-12"/><path d="M284.2 143.5a2.2 2.2 0 0 1 .4 0c1 .2 1.4.8 1.3 1.9-.2 3.7-1.2 7.6-1.7 11.3-.3 2.1 1 3.6 0 5.5a6.4 6.4 0 0 1-4.4 2.5 6.8 6.8 0 0 1-5-1.6c-1.7-1.5-1.5-3.9-1.5-6 0-3.4-.7-6.5-.2-10 .2-1.4 0-3 1.1-4 1.7-1.6 4.8-1.2 6.8-.5l1.9.8a6.8 6.8 0 0 0 1.3.1Z" class="cls-13"/><path d="m284.3 157.5 6 38.7-4.3.3-7.8-25 .6 25.4-4.2.8s-3-17.8-2.8-23.5-.6-13.5 1.7-16.9c0 0 7.6 2.1 10.8.2Z" class="cls-10"/><path d="M278.9 139c.5 2.5 4.4 1.7 5.1 0a6.2 6.2 0 0 0-.2-5.4c-.8-2.4-1.4-2.8-3.2-3 0 0-3.3.9-1.7 8.4Z" class="cls-12"/><path d="M275.6 199a18.1 18.1 0 0 0 2.2-.1c.3-.1 1.3-.8.5-1 .7-.5 3-.3 3.7.2.6.4-6 2-6 2l-.4-1Z" class="cls-23"/><path d="M282.9 133c-.9 1.7-1.3 7.6-4.3 6.7-2.2-.8-1.8-6.5-.8-8.2.8-1.4 5.6-2 6.5-.5 1.1 1.8-1 1.3-1.4 2Z" class="cls-15"/><path d="M299.5 135.9c.1 1.5-5.5 8-5.5 8s-7 5-9.8 6.5a11.8 11.8 0 0 0-1.5-5.6c2.7-1.4 9.5-4.3 9.5-4.3l5.2-6.2 2.1 1.6Z" class="cls-13"/><path d="M291.6 197c-1 1.3-2.9 1-4.3 1-.7 2.3 2.7 1.2 3.7.4Z" class="cls-23"/><path d="M418.2 137.8a7.8 7.8 0 0 1-5.7-7.9c.1-2 1-1.7 2.2-3s.6-1.7-.5-3c-2-2.6-3.8-5.5-3-9 .7-3.2 4.6-3.2 3.7-6.5-1-4.4-.6-8.7-.1-13.2.3-2.6 1.2-9 4.8-9.1 3.4-.1 3.3 6.2 3.3 8.4.1 2-.3 3.4 1.2 4.5 2 1.4 4.3 2 4.7 4.8.5 3.4-3.3 4.8-3.5 7.8-.1 2.6 3.4 4 4.7 6 2.4 4-2.3 4-2.6 7a1.4 1.4 0 0 1-.3.6c1.3 1 3.1 1.5 3.9 3a4.7 4.7 0 0 1-1 5.2c-2.6 2.9-7.4 5.4-11.3 4.5Z" class="cls-13"/><path d="M426.3 160.3c0 .2-2.9.5-6.4.5s-6.3-.3-6.3-.5 2.8-.6 6.3-.6 6.4.3 6.4.6Z" class="cls-4"/><rect class="cls-2" x="419.53" y="86.07" width="0.17" height="72.3"/><path class="cls-2" d="M419.68,112.26l9-9-.06-.19-9,9Z"/><path class="cls-2" d="M419.68,109.52l8-8-.12-.12-8,8Z"/><path class="cls-2" d="M419.68,121.94l7.26-7.26-.13-.12-7.25,7.26Z"/><path class="cls-2" d="M419.56,97.52l.12.12,3.24-3.24v-.24Z"/><path class="cls-2" d="M419.56,123.47l.12.12,8.14-8.14-.14-.11Z"/><polygon class="cls-2" points="428.78 127.58 419.56 136.8 419.68 136.93 428.9 127.7 428.78 127.58"/><rect class="cls-2" x="417.71" y="122.12" width="13.05" height="0.17" transform="translate(37.84 335.77) rotate(-45)"/><path class="cls-2" d="M419.77,116.71l-5.55-5.55-.12.12,5.55,5.55Z"/><path class="cls-2" d="M419.77,118.72l-6.6-6.61-.14.11,6.62,6.62Z"/><path class="cls-2" d="M419.77,131.14l-4.65-4.65a1.3,1.3,0,0,1-.1.15l4.63,4.62Z"/><path class="cls-2" d="M419.56,134.06l.12.12,8.38-8.38-.15-.08Z"/><path class="cls-2" d="M415.7,90.41l3.95,3.94.12-.12-4-4Z"/><path class="cls-2" d="M419.77,103.73l-5.34-5.34c0,.08,0,.15,0,.23l5.24,5.23Z"/><path class="cls-2" d="M419.77,105.56l-5.47-5.47a1.93,1.93,0,0,1,0,.24l5.36,5.35Z"/><rect class="cls-13" x="419.58" y="138.04" width="0.28" height="20.33"/><path class="cls-13" d="M420.71,159.89s-5-17.86-8.17-10.06S420.71,159.89,420.71,159.89Z"/><path class="cls-13" d="M420.57,160.62l0-.54c0-.57-.75-14.08,2.82-17.86a2.85,2.85,0,0,1,2.49-1,2,2,0,0,1,1.72,1.16c1.92,4-6.36,17.19-6.71,17.74Zm4.92-19a2.53,2.53,0,0,0-1.88.87c-3.07,3.25-2.85,14.41-2.75,17,1.49-2.43,8-13.5,6.4-16.93a1.69,1.69,0,0,0-1.45-1Z"/><path fill="#ad5c32" d="M214.6 203.8a1332 1332 0 0 0-4.4-22.3c-1.4-5-11.8-8.6-11.4-.4s12.3 21.7 8.3 24.6c-5.5 4-10.5 13.7-14.2 16.9a5.8 5.8 0 0 0-1.2 1.1l-1.4 1.4 3.9 5s.9-1-.4-3.1a1.5 1.5 0 0 1-.2-1c.2 0 21.4-19.7 21-22.2Z"/><path d="M201.3 148.7a36.8 36.8 0 0 0-3.7 2.6s4.5-4 4.3-8 1.6-2.7 3.5-1.5c1 .7.8 3.5 1.2 4.8.3 1 1.1 2.3 1 3.4-.4 2.1-2-.3-3-1a6.4 6.4 0 0 0-3.3-.3ZM205.4 230.2a1.5 1.5 0 0 1-1.3-1.4l.3-2.2.2-.6-.2.2 2.5-19.7s6.7-25 6.1-29.3c-.3-2.8-7.6-2-9.5-2.5-3.2-.8-4.6 1-5.4 3.6l-.5 1.6c-2 8.4 4.3 16.4 3.2 24.9-1 7.9.8 24.6.8 24.6v2.2l6.3.5s-.2-1.4-2.5-1.9Z" class="cls-26"/><path d="M217 190c-.3-3-2.2-11.9-2.2-11.9l-1-3.2c-.3-1-.3-2-.6-2.9-.6-1.8-1-1.7-3-1.8a22 22 0 0 0-8.6 1 7.5 7.5 0 0 0-4.8 5.4c-.3 1.7 0 3.5-.3 5.2-.4 2-.6 19.3-3.1 18.9 1.1.2 2.2-.3 3.3-.2a24.8 24.8 0 0 1 3.6.7 47.4 47.4 0 0 0 6.8 1c3.4.1 7.7 1 10.8-.7 2.6-1.4 1.3-2.3.3-4.2-1-2.2-.8-5-1.1-7.4Z" class="cls-10"/><path d="M205.2 147.5c-2.7-1.4-6.2 1-7.4 3.3-1.8 3.3-.5 8.6 0 12.3.4 3.2 1.2 6.5.4 9.7a50.3 50.3 0 0 1-2 4.8c-.9 2.2.3 2.1 2.4 2 3.9 0 7.6-.3 11.4-.5 1.2 0 3 .3 4-.2 1.6-.7 1-1.2.6-2.9-1.3-5-3.2-7.7-1.9-13 .6-2.2 1.5-3.3.3-5.3a35.8 35.8 0 0 0-3.8-5.2c-1-1.2-2.4-4-3.7-4.8a1.7 1.7 0 0 0-.3-.2Z" class="cls-13"/><path d="M219.9 160.9q-6 5.7-9.1 8.9l-1.7 1.7a11.7 11.7 0 0 1-1.8 1.3 6 6 0 0 1-2.2.9 6 6 0 0 1-2.4-.1 11.8 11.8 0 0 1-2.1-.7l-2.1-1q-3.2-1.6-11.6-5.4a11.5 11.5 0 0 1-2.4-1.4l2.8 16.4a3.2 3.2 0 0 0 1.4 2.2 3.3 3.3 0 0 0 2.5.6l30.5-5.2a3.4 3.4 0 0 0 2.8-3.9l-2.8-16.4a11.5 11.5 0 0 1-1.8 2.1Z" class="cls-5"/><path d="m187.3 168.6 11.5 5.4 2.1 1a11.8 11.8 0 0 0 2.2.7 6 6 0 0 0 2.3 0 6 6 0 0 0 2.3-.8 11.7 11.7 0 0 0 1.7-1.3l1.7-1.7q3.1-3.2 9.2-9a12.2 12.2 0 0 0 1.6-2 5 5 0 0 0 0-1 3.2 3.2 0 0 0-1.4-2.1 3.3 3.3 0 0 0-2.5-.6l-30.5 5.2a3 3 0 0 0-2.3 1.5 4.3 4.3 0 0 0-.4 2.8 3 3 0 0 0 .1.5 11.3 11.3 0 0 0 2.3 1.4Z" class="cls-6"/><path d="M186.9 166.5q8.4 3.8 11.5 5.4l2.2 1a12.3 12.3 0 0 0 2 .7 6 6 0 0 0 2.5.1 6.2 6.2 0 0 0 2.2-.9 12.2 12.2 0 0 0 1.7-1.3l1.7-1.7 9.1-8.9a11.5 11.5 0 0 0 1.7-2 5 5 0 0 0 0-1 3.4 3.4 0 0 0-4-2.8l-30.4 5.2a3 3 0 0 0-2.3 1.5 4.2 4.2 0 0 0-.3 3.3 11.7 11.7 0 0 0 2.4 1.4Z" class="cls-7"/><path d="M202.7 148.2c-2.2-.4-3.5 1.3-5.3 5.1s-5.7 12.2-5.6 13.3c0 1 2.2 2.3 2.8 2.8 2 1.7 4 3.3 5.8 5a30.7 30.7 0 0 1 4.9 5c1.1 1.5 1.8 5.6 4.2 2.7 1.3-1.5-5.2-8.9-6.5-10.2-2.2-2.1-5.8-6.5-5.8-6.5l5.4-9c1.8-3 2-7.9 0-8.2Z" class="cls-26"/><path d="M202.7 148.2c-2.2-.4-3.5 1.3-5.3 5.1s-5.7 12.2-5.6 13.3c0 1 2.2 2.3 2.8 2.8 3.5 3 6.9 5.6 9 9.7l3.8-3-8.8-10.3a73.2 73.2 0 0 1 4-9.3c1.7-3.1 2-8 0-8.3Z" class="cls-17"/><path d="M202.2 144.4c-1.7-2.3-2.8-6.6-1.7-9.3s3.1-3 5.6-1.4 6.1 9 1.9 10.1c-1.1.3-2.3 0-3.3.5Z" class="cls-26"/><path d="M201.2 131.4c3.1-1.3 7.6-1.4 8.1 1.9.4 2.7-3.3 3.8-5.3 3.4v1.2s-1.7-.4-1.3 1.1a1.3 1.3 0 0 0 1.8.8c-.8.3-1.1 1.5-2.3 1.7-1.5.2-2.3-.5-3-1.7-1.2-2-2-4.6-.5-6.6a6.1 6.1 0 0 1 2.5-1.8Z" class="cls-15"/><path d="m208.9 137.2 2 2.5-1.9.9-.1-3.4z" class="cls-26"/><path d="M206 230.4a4.8 4.8 0 0 1-4.4-.2v1.4l6.3.5s-.2-1.1-2-1.7ZM191 224.5l-.7.6 3.9 5a2.3 2.3 0 0 0 0-2.2 5 5 0 0 1-3.3-3.4Z" class="cls-27"/><path d="M199.4 134.4c-3.6 1.4-7.3-4-3.9-6.4a3.6 3.6 0 0 1 4.9.4c1.4 1.8.6 3.9.8 6Z" class="cls-15"/><path d="M352.6 40.1a298.1 298.1 0 0 0-10.8.9 8.5 8.5 0 0 1-1.6 0 4.4 4.4 0 0 1-1.6-.6 4.3 4.3 0 0 1-1.3-1.2 8.8 8.8 0 0 1-.8-1.3l-.8-1.6-3.8-8.2a8.2 8.2 0 0 1-.7-2l-6 10.4a2.4 2.4 0 0 0-.2 1.9 2.3 2.3 0 0 0 1.1 1.4L345.3 51a2.4 2.4 0 0 0 1.8.2 2.3 2.3 0 0 0 1.5-1l6-10.4a8.2 8.2 0 0 1-2 .3Z" class="cls-5"/><path d="m331 29.4 4 8.3.7 1.5a8.3 8.3 0 0 0 .8 1.4 4.2 4.2 0 0 0 1.3 1.1 4.5 4.5 0 0 0 1.6.5 8.5 8.5 0 0 0 1.6.1l1.7-.1 9.1-.8a8.4 8.4 0 0 0 1.9-.3 3.6 3.6 0 0 0 .4-.6 2.3 2.3 0 0 0 .2-1.8 2.4 2.4 0 0 0-1-1.5L334 26.1a2.1 2.1 0 0 0-1.9-.3 3 3 0 0 0-1.5 1.4 1.9 1.9 0 0 0-.2.4 8 8 0 0 0 .7 1.8Z" class="cls-6"/><path d="m331.9 28 3.8 8.4.7 1.5a8.7 8.7 0 0 0 .9 1.3 4.3 4.3 0 0 0 1.3 1.2 4.2 4.2 0 0 0 1.6.5 7.8 7.8 0 0 0 1.6.1l1.7-.1c2-.3 5.1-.5 9-.8a8.6 8.6 0 0 0 2-.3 4 4 0 0 0 .4-.6 2.3 2.3 0 0 0 .2-1.9A2.3 2.3 0 0 0 354 36l-19.2-11.1a2.2 2.2 0 0 0-2-.3 3 3 0 0 0-1.5 1.4 1.8 1.8 0 0 0-.1.3 7.5 7.5 0 0 0 .7 1.9Z" class="cls-7"/><path d="M314.7 185.8c0 .5-4.9.9-10.9.9s-10.9-.4-10.9-.8 4.9-.9 10.9-.9 10.9.4 10.9.8Z" class="cls-4"/><path d="M297.4 174.1c0 6.5 2.7 11.8 6.1 11.8s6-5.3 6-11.8Z" class="cls-2"/><path fill="#a0ace9" d="M304.7 175c1.8-1 5.4-2 6.2-4.5 1.2-4-3.6-3.2-5.6-2.3 1.2-1 6-3.3 4.8-5.4s-4.7 1.3-4.5 3.1c1.4-2.9 2.3-9.9.4-12.7-1.8-2.5-3.5-.4-3.9 1.9a14.8 14.8 0 0 0 1.4 8.6c-.9-1.4-2.8-4.4-4.8-3 .3 2.7 3.1 5.3 4.3 7.6-1.3-.9-5.3-2-5 .6 0 2.4 4.7 3 5.6 4.6Z"/><path d="M304.1 174.2c.4-1.4.6-4.2 1.8-5.3 1.7-1.7 1.5.9.8 2 1.7-1.5 4.4-5.8 6.7-6.2 3.3-.7-1.6 3.8-2.1 4.6 1.4-.2 6.4-2.4 6.6-.2.1 2.6-5.9 2.9-7.5 3.4 1 .7 2.3 1.6 2 3-2.2.8-3.1-.3-4.9-1.1a2.7 2.7 0 0 1-4.1.2Z" class="cls-20"/><path d="M304.7 175.3c-.4-.5-3.1-9-4-5.3-1-1.8-3.9-8-6.5-5.2s1.2 6.5 4 6.8c-1.2.9-3 2.4-.7 3.2 1.6.5 3.9-.6 5.5-.6Z" class="cls-14"/></svg>